<svg xmlns="http://www.w3.org/2000/svg"><svg xmlns="http://www.w3.org/2000/svg" width="306" height="306" fill="none" style="z-index: 2; position: absolute; pointer-events: none;"><path fill="#fff" d="M236.1 278.4c-.7.5-1.5 1-2.2 1.5-.8.5-1.5 1-2.3 1.4-.7.4-1.3.8-2 1.2-.1.1-.2.1-.3.2-2.3 1.4-4.7 2.7-7.1 3.9-.7.4-1.5.8-2.2 1.1 0 0-.1.1-.2.1l-2.4 1.2c-1.6.8-3.3 1.5-4.9 2.2-.8.4-1.7.7-2.5 1-.8.3-1.7.7-2.5 1-.8.3-1.7.7-2.5 1h-.1c-.8.3-1.7.6-2.5.9-1.8.6-3.7 1.2-5.5 1.8-.6.2-1.3.4-1.9.6-1.9.6-3.8 1.1-5.7 1.5-.7.2-1.4.3-2.2.5-1.8.4-3.7.8-5.5 1.2-.4.1-.7.1-1.1.2-.6.1-1.3.2-1.9.3-.9.1-1.7.3-2.6.4-.4.1-.8.1-1.2.2-.5.1-1.1.2-1.7.2-1.6.2-3.3.4-4.9.6-.5.1-1.1.1-1.6.2h-.1c-.7.1-1.4.1-2.1.2-.7.1-1.4.1-2.1.1-.4 0-.9.1-1.3.1-.8 0-1.5.1-2.2.1-1 0-1.9.1-2.9.1h-5c-42.2-.6-80.1-18.5-107.2-46.9 0 0 0-.1-.1-.1-3-2.7-.4-17.1 11.7-26.2 15.2-11.5 51.6-18.7 51.6-18.7s14.1-2.3 66.4 8.6c30.6 6.4 53.9 15.7 66.9 40.9 2.7 5.2 5.4 13.2-4.1 17.4Z"></path><path fill="#000" d="M173.6 219c19.2 3.9 39.7 8.1 55.5 20.8 5.3 4.3 8.8 10.6 11.7 16.7 1.4 3 2.8 6.1 3.9 9.4.6 2.2 1.5 4.7 1 7.3-.1.7-.7 1.6-1.2 2.1-2.3 2.3-4.8 3.7-7.3 5.5-14.7 10.2-31.6 17.4-49.1 21.2-39 8.5-81.2 1.9-115.5-18.6-11.4-6.9-21.9-15.3-30.9-25.2-1-1.2-1-3.2-1-4.5.1-3 .9-5.9 1.9-8.6 2.4-6.2 5.5-12.4 10.8-16.7 3.8-2.6 7.9-4.8 12.1-6.6 13.2-5.6 27.1-9.5 41.4-11.1 1.2-.1 1.4 1.6.2 1.8-13.7 2.8-27.3 7-40 12.7-4.6 2.3-9.5 4.3-13.2 7.9-3.5 3.8-6 8.5-8 13.3-1.3 2.9-2.2 7.5-1.8 9.8 6.3 7.5 13.7 14.1 21.7 19.8 43.8 30.6 110.3 32.6 156.9 7.1 4.2-2.3 8.3-4.9 12.2-7.6 1.9-1.3 3.9-2.4 5.4-3.9.1-.1 0 0 0 .1s-.1.2-.1.2c.1-1.2-.3-2.8-.8-4.4-1.8-5.8-4.7-11.9-7.8-17.2-4.9-7.9-13.2-12.9-21.6-16.9-5.8-2.7-11.9-4.8-18.1-6.8-6.2-2-12.5-3.7-18.8-5.2-1.6-.4-1.1-2.7.5-2.4Z"></path></svg><svg xmlns="http://www.w3.org/2000/svg" width="306" height="370" fill="none" style="z-index: 3; position: absolute; pointer-events: none;"><path fill="#fff" d="M236.1 278.4c-.7.5-1.5 1-2.2 1.5-.8.5-1.5 1-2.3 1.4-.7.4-1.3.8-2 1.2-.1.1-.2.1-.3.2-2.3 1.4-4.7 2.7-7.1 3.9-.7.4-1.5.8-2.2 1.1 0 0-.1.1-.2.1l-2.4 1.2c-1.6.8-3.3 1.5-4.9 2.2-.8.4-1.7.7-2.5 1-.8.3-1.7.7-2.5 1-.8.3-1.7.7-2.5 1h-.1c-.8.3-1.7.6-2.5.9-1.8.6-3.7 1.2-5.5 1.8-.6.2-1.3.4-1.9.6-1.9.6-3.8 1.1-5.7 1.5-.7.2-1.4.3-2.2.5-1.8.4-3.7.8-5.5 1.2-.399.1-.7.1-1.1.2-.6.1-1.299.2-1.9.3-.899.1-1.7.3-2.6.4-.4.1-.8.1-1.2.2-.5.1-1.099.2-1.7.2-1.6.2-3.3.4-4.9.6-.5.1-1.1.1-1.6.2h-.1c-.7.1-1.4.1-2.1.2-.7.1-1.4.1-2.1.1-.4 0-.9.1-1.3.1-.8 0-1.5.1-2.2.1-1 0-1.9.1-2.9.1h-5c-42.2-.6-80.1-18.5-107.2-46.9 0 0 0-.1-.1-.1-3-1.5-.9-18.6 11.2-27.7 15.2-11.5 52.1-17.2 52.1-17.2s14.1-2.3 66.4 8.6c28 5.8 54 15 63.5 31 2.6 4.4 8.901 13 7.8 19.5-.6 3.5-5.5 5.1-8.5 7.8Z"></path><path fill="#000" d="M173.601 219c18.6 4 40.4 7.5 55.7 19.6 9.8 7.8 13 20.2 17.7 31.4.4.7 0 1.4-.3 2-2.7 4.2-7.1 7-11.1 9.8-11.7 7.9-24.8 13.9-38.3 17.8-45.2 13.1-96.3 4.9-134.6-22.6-7.7-5.5-14.8-11.8-21.1-18.8l.5.4c-1.6-1.1-2-3.1-2-4.8.5-7 3.6-13.4 6.7-19.6 1-1.8 2.1-3.8 3.7-5.2 14.7-13.5 38.9-18.7 58.2-20.5 1.2-.1 1.3 1.6.2 1.8-17.9 3.3-36.5 7.5-51.7 17.9-2 1.6-4.4 3.2-5.8 5.4-2.3 3.6-10.4 19.2-7.4 22.4 20.9 24.9 52.3 39.2 84.2 43 31.4 4.2 64.5-.1 92.6-15 4-2.1 7.9-4.4 11.6-7 3.4-2.3 6.8-4.5 9.4-7.6l-.1.2-.1 1.8c-.3-3.7-2.2-7.3-3.4-10.8-1.4-3.5-2.9-7.2-4.7-10.4-3.6-6.5-9.8-11.1-16.3-14.6-6.7-3.6-14-6.2-21.5-8.4s-15-4.1-22.7-5.8c-1.5-.4-1-2.7.6-2.4Z"></path><path fill="#000" stroke="#000" stroke-linecap="round" stroke-linejoin="round" stroke-miterlimit="10" stroke-width="5.126" d="M56.9 226.5s5 .6 11.9 4.8c12.9 7.9 33.1 57-2.1 86.4 0 0-6.3 36.8 0 43.8 0 0 115.2 5.8 164.9 0 0 0 6.6-21.6 3.4-44.7-4-29.3-2.8-60.1-22.1-86.4-8.8-12-52.9-22.4-78.4-22.2-25.8.3-36.5 3-43.3 4.7-6.9 1.8-33.8 8.3-34.3 13.6Z"></path><path stroke="#fff" stroke-linecap="round" stroke-linejoin="round" stroke-miterlimit="10" stroke-width="4" d="M59.9 230.5c12.1-11.1 10.7-1.7 33.4-5.4 8.7-1.4 19-8.6 32.3-8.3 9.6.2 20 7.4 32.3 9 9.9 1.3 21.7-3.2 33.5-.8 9.9 2.1 19.1 10.8 30.5 13.9"></path><path stroke="#fff" stroke-linecap="round" stroke-linejoin="round" stroke-miterlimit="10" stroke-width="4" d="M60.8 243.8c14.2-8.5 11.5.4 34-2.7 8.901-1.2 19.501-8.6 32.701-8.5 9.8.1 20.4 7.2 32.8 8.4 10.1 1 21.9-3.9 33.8-1.9 10.2 1.8 19.7 10.4 31.2 13.1M61.7 257.2c15.6-6.2 12.2 2.2 34.5-.2 9.2-1 20-8.4 33.2-8.4 10 0 20.9 7 33.3 8 10.3.8 22.2-4.6 34.1-2.9 10.4 1.5 20.3 9.9 32 12.2M62.6 270.8c16.5-4.1 12.7 3.8 34.8 2 9.401-.8 20.501-8.1 33.701-8.2 10.3-.1 21.5 6.9 33.9 7.6 10.6.6 22.4-5.3 34.5-4 10.7 1.1 21.1 9.3 32.9 11.2M63.3 284.4c17.1-2.4 13 5.1 35.1 4 9.701-.5 21.101-7.8 34.401-7.9 10.5-.1 22 7 34.5 7.4 10.8.4 22.7-5.9 34.9-5.1 11 .8 21.9 8.7 33.8 10M64 298c17.5-1 13.3 6.3 35.4 5.8 10-.2 21.7-7.4 35-7.4 10.8 0 22.5 7.1 35.1 7.3 11.1.2 23.1-6.5 35.3-6.1 11.3.4 22.7 8 34.8 8.7M64.7 311.7c17.9.2 13.5 7.3 35.6 7.4 10.2.1 22.4-7 35.8-6.9 11.1.1 23.1 7.3 35.7 7.3 11.5.1 23.5-7 35.7-7 11.7 0 23.7 7.2 35.7 7.2M65.3 325.4c18.1 1.2 13.7 8.1 35.901 8.9 10.5.4 23-6.5 36.5-6.3 11.4.2 23.6 7.6 36.3 7.5 11.8 0 23.9-7.5 36.2-7.9 12.1-.4 24.6 6.4 36.6 5.6M65.9 339.1c18.4 2 13.9 8.9 36.2 10.3 10.7.7 23.7-6.1 37.3-5.6 11.7.3 24.1 7.9 36.9 7.8 12.2-.1 24.4-7.9 36.7-8.6 12.5-.8 25.7 5.4 37.5 3.8M66.5 352.8c18.6 2.7 14 9.6 36.6 11.6 11 1 24.3-5.6 38.1-5 12 .5 24.6 8.3 37.5 8.2 12.5-.1 24.9-8.2 37.2-9.3 13-1.2 26.8 4.4 38.4 1.8"></path></svg><svg xmlns="http://www.w3.org/2000/svg" width="306" height="306" fill="none" style="z-index: 4; position: absolute; pointer-events: none;"><path fill="#fff" d="M183 245.6c-2.1 10.3-15.7 16.5-38.6 7.2-23.8-9.6-34.1-32.5-36.7-39.3 14.1-26.4 4.3-44.7 4.3-44.7 32.5-2.8 60.9 35.2 60.9 35.2l4.4 18.8c.4 1.6 1.2 3 2.4 4 2.1 3.7 4.6 12.2 3.3 18.8Z"></path><path fill="#000" d="M107.201 213.8c1.9-2.9 3.1-6.3 3.9-9.6 1.5-6.9 2-13.9 2.1-20.9v-2.6c-.3-2.6-1.2-5.3-2.2-7.7-1.3-3.2 3.4-5.2 4.9-2 .2.4.2 1.1.2 1.5.3 13.6.9 31.1-7.7 42.4-.6.6-1.8-.3-1.2-1.1ZM174 203.8c1.5.9 2 2.1 2.2 3.3.6 2.4.4 5 1 7.5.5 2.4 2 4.7 2.4 7.2.5 2.6 2 8.1 2.6 10.8.2.6-.2 1.3-.9 1.4-.4.1-.7 0-1-.2-1.3-1.1-1.9-2.2-2.7-3.6-1.3-2.4-2.2-4.6-3-7.3-.7-2.4-.4-5-1-7.5-.5-2.4-1.9-4.7-2.4-7.2-.3-1.2-.4-2.5.5-4 .6-.6 1.6-.8 2.3-.4Z"></path><path fill="#000" d="M181.201 230.2c-19.1-1-34.7-7-49.9-34.1 12.8 11.3 27.9 15.6 43.8 17.6l2.1 9.2c.4 1.6 2.8 6.3 4 7.3Z"></path><path fill="#000" d="M180.401 226.5c3.4 6.4 5.4 14.4 3.3 21.5-1.6 5-6.2 8.7-11.2 10.1-11.6 3.1-25-1.8-35.3-7.3-12.7-7.1-22.1-19-28.1-32-.4-1 1-1.8 1.6-.8 2.1 4.2 4.5 8.3 7.2 12 2.7 3.8 5.8 7.3 9.3 10.4 10.2 9.2 24 14.9 37.8 14.9 14.2-.4 19.6-7.9 16.3-21.7-.5-2.2-1.3-4.5-2.4-6.4-.6-.8.9-1.7 1.5-.7Z"></path><path fill="#fff" d="M219.1 106.4c1.8 8.4.4 14-.4 37.2-9.2 38.4-8.5 59.7-13.6 64.8-4 4-27.9 9.2-45.6 4.7-9-2.3-16.6-7.5-22.8-11.2-7.8-4.7-13.7-20-19.3-29.3-4.4-7.3-4.9 2.3-10.6-4-7.9-8.6-17.4-25.9-12.7-56.5 7.6-49.6 46.9-55.4 76-49.9 29.2 5.5 44.2 22.1 49 44.2Z"></path><path fill="#000" d="M111.7 177.4c-3.5-5.8-8.5-10.6-11.7-16.6-9.7-18.2-11.7-40.3-6.1-60.1 11.7-42.2 54.1-48.4 90.9-36 20.6 7 35.1 24.4 37.2 46.3.2 7-1.6 13.5-1.7 20.4-.5 18.2-6.2 35.7-8.4 53.2-.5 5.5-.5 11.3-1.3 16.9-.2 1.2-.4 2.3-.8 3.6-.9 2.7-2.9 4.6-5.1 6.1-8.3 5.1-17.7 6-27.1 6.5-19.6.8-36.8-4.9-48.5-21.2-.4-.6.4-1.3.9-.7 13.1 14 28.8 18.5 47.4 17.6 7.9-.4 24.8-1.9 28.3-9.6 1.7-6.3 1.7-12.9 2.7-19.5 1.1-7.8 4.1-18.7 5.9-26.4 2-8.7 3.7-17.5 3.8-26.4.1-4.5.1-9 .1-13.5.2-4.5-.7-8.4-1.8-12.7-4-17.1-16.3-31.3-32.9-37.6-16.3-6.3-35.2-7.9-51.9-2.4-17 5.4-28.6 20-33 37-2.3 8.4-3.5 17.2-4.1 25.9-.5 8.8.4 17.8 3.9 26 2.5 6.2 6.6 11.6 11.4 16.1l4.7 4.9c2.2 2-1.2 4.6-2.8 2.2Z"></path><path fill="#fff" d="M123.5 145.6s-3.1-15-17.7-13.2c-12.6 1.6-17 31.8 11.6 40.2"></path><path fill="#000" d="M116.101 159.5c-2.3-1.3-3.9-3.5-4-6.2.1-2 .4-4.3-.1-6.3-.3-1.9-2.3-2.4-3.8-2.3-1.6.3-2.6 2.3-2.9 3.9 0 .1-.1.4-.1.5-.1.5-.9.5-1.1 0-1.3-3.9 1.6-8.2 5.8-7.7 5.9.4 6.7 6.6 5.6 11.3-.6 2 .2 3.8 1.3 5.5l.2.3c.5.6-.3 1.4-.9 1ZM196.1 135c1.5 7.1 4.3 13.7 7.8 19.9 3.1 7.6-4.9 14.8-12 14.5-.8 0-.9-1.1-.2-1.3 4.5-1.4 8.6-4.4 9.3-9 .3-1.4-.1-2.6-.8-3.8-3.3-6.2-5.3-13.3-4.8-20.3 0-.5.7-.5.7 0Z"></path><path fill="#000" d="M123 145.7c-2.3-5.9-7.3-11.5-14-11.4-.6-.1-1.6.1-2.2.1-1.7.1-3.1.7-4.4 1.9-6.4 6.4-5.3 17.7-.1 24.8 1.8 2.5 4.1 4.7 6.7 6.5 2.6 1.8 5.5 3.2 8.6 4.4.7.2.4 1.3-.3 1.2-6.7-1.4-13.1-4.7-17.5-10.2-6.8-8.2-8.2-21.9-.1-29.9 1.8-1.6 4.3-2.8 6.8-2.8.8 0 2-.2 2.8 0 4.2.2 8.2 2.3 10.8 5.6 2.3 2.8 3.6 6.2 4 9.6 0 .6-.9.8-1.1.2Z"></path></svg><svg xmlns="http://www.w3.org/2000/svg" width="306" height="306" fill="none" style="z-index: 5; position: absolute; pointer-events: none;"><path fill="#000" d="M199.3 97c2.1 1.1 3.9.1 5-2.1 11.6-1.8 14.3 21.4 14.7 22.8 1.3 5.3 8.3 6.3 10.9 1.6 7.1-13 11.7-31.3-8.4-42.7 2.5-3.7.7-22.1-20.2-26.6-7.5-1.6-17.3 5.4-29.6 2.7-48.1-10.7-98-.5-94.1 63 .9 13.9 1.8 28.9-21.8 38.9-27.4 11.6-26 41.9-6.7 48.1 8 2.6-18.4 20.6-3 36.6 8 8.4 22.3-8.6 36.8.6 21.9 13.9 32.8 7.6 37.1 2.1 8.8-11.2-2.1-33.7-2.1-33.7s4.3-6.9 5.7-10.6c6.8-18.2-9.4-26.4-9.4-26.4-25-9.6-20.5-37.5-8.3-39.1 12.8-1.6 16.8 9.8 17.5 12.6 0 0 11.3 15.6 33.1-20 21.6-35.5 33.3-32.9 42.8-27.8Z"></path></svg><svg xmlns="http://www.w3.org/2000/svg" width="306" height="306" fill="none" style="z-index: 6; position: absolute; pointer-events: none;"><path fill="#000" d="M174.2 122c2.2-.2 3.3-2.8 2.1-4.8-.7-1-1.6-1.9-2.9-2.4-3.8-1.2-16.2 1.5-21.6 7.7-4.8 5.7 12.4.4 22.4-.5ZM200.6 123.6c-1.7-.5-2.2-3-.8-4.6.7-.8 1.7-1.5 2.8-1.7 3.4-.6 11.2 2.5 13.4 8.4 2 5.1-7.3-.1-15.4-2.1ZM158.8 145.2c-2.4-.1-4.2-2.1-4-4.5l.1-2.8c.1-2.4 2.1-4.2 4.5-4 2.4.1 4.2 2.1 4 4.5l-.1 2.8c-.1 2.3-2.1 4.1-4.5 4ZM200.9 146.7c-2.2-.1-3.9-2-3.8-4.2l.1-2.6c.1-2.2 2-3.9 4.2-3.8 2.2.1 3.9 2 3.8 4.2l-.1 2.6c-.1 2.2-2 3.9-4.2 3.8Z"></path><path fill="#000" d="M167.8 139.8c-3.3-2.2-6.9-3.7-10.9-2.9-1.3.2-2.6.6-3.4 1.5-.3.4-1 .3-1-.3.1-2 1.8-3.3 3.4-4.1 3.1-1.6 7.4-1.3 10.2.8 1 .6 4.4 4.3 2.6 5.1-.4.2-.6.1-.9-.1ZM196.399 140.3c0-4.2 5.2-5.7 8.4-4.2 1.8.8 3.1 2.4 3.6 4.3.2.6-.7 1.1-1.1.6-1.7-2-4.6-3-6.9-1.8-.7.4-.8.7-1 1.1 0 2-2.9 1.9-3 0Z"></path></svg><svg xmlns="http://www.w3.org/2000/svg" width="306" height="306" fill="none" style="z-index: 7; position: absolute; pointer-events: none;"><path fill="#000" d="M189.4 178.9c-1.7 1.2-4.2.2-6 1-1.3.4-3.4 2.2-6.4 2-2.4-.2-3.6-1.4-5.6-2.3-2.1-.7-4.3-2-5.7-3.7-.3-.3-.3-.7 0-1 .4-.4.8-.1 1.2.1.9.5 1.6.9 2.3 1.1.7.2 1.4 0 2.5 0 1.1-.1 2.7.4 3.7 1.2.7.5 1.5.8 2.1.9 1.6.3 3.6-1 5.3-1.2 1.2-.2 2.5-.1 3.5.2 1 .3 1.7.5 2.5.3.9-.2 1.4 1 .6 1.4Z"></path></svg><svg xmlns="http://www.w3.org/2000/svg" width="306" height="306" fill="none" style="z-index: 8; position: absolute; pointer-events: none;"><path fill="#000" d="M188 165.5c-3.8-1-12.1-1.8-13.9 8.1 0 0 5.5 3.6 13.2 3.1 1.2-.1 2.3-4.2 2.3-4.2l.3 4.2 6.1.5.7-4.1.5 4.1s4.8.5 5.7-1.1c1.2-2.2 2.6-13.7-8.5-10.4-2.1.7-4.3.3-6.4-.2Z"></path></svg><svg xmlns="http://www.w3.org/2000/svg" width="306" height="306" fill="none" style="z-index: 9; position: absolute; pointer-events: none;"><path fill="#000" d="M201.9 158.1s1.2 6.8 9.1 10.2c2 .8 4.1-.5 4.1-2.7-.1 0-12.7-6.7-13.2-7.5ZM140.1 158.1s3.7 8.4 14.8 10.4c11.1 2.1 21.2-5.9 25.9-19.3 0 0-3.8 12.4-19 14.7-15 2.5-21.7-5.8-21.7-5.8Z"></path><path stroke="#000" stroke-linecap="round" stroke-linejoin="round" stroke-miterlimit="10" stroke-width="3" d="M183.001 139.4c-.3 14.3-11.8 25.8-25.7 25.8-13.9 0-25-11.5-25-25.8.1-14.4 11.6-26.2 25.7-26.2s25.4 11.8 25 26.2ZM196.7 136.1c1.6-12.9 10-23 19.9-23 10.7 0 18.9 11.8 18.3 26.2-.6 14.3-9.6 25.8-20.1 25.8-3.9 0-7.4-1.5-10.3-4.2M132.6 136.6h-14.2M183.1 136.6s11.9-4.6 13.4 0"></path></svg></svg>