<svg xmlns="http://www.w3.org/2000/svg"><svg xmlns="http://www.w3.org/2000/svg" width="306" height="306" fill="none" style="z-index: 2; position: absolute; pointer-events: none;"><path fill="#fff" d="M236.1 278.4c-.7.5-1.5 1-2.2 1.5-.8.5-1.5 1-2.3 1.4-.7.4-1.3.8-2 1.2-.1.1-.2.1-.3.2-2.3 1.4-4.7 2.7-7.1 3.9-.7.4-1.5.8-2.2 1.1 0 0-.1.1-.2.1l-2.4 1.2c-1.6.8-3.3 1.5-4.9 2.2-.8.4-1.7.7-2.5 1-.8.3-1.7.7-2.5 1-.8.3-1.7.7-2.5 1h-.1c-.8.3-1.7.6-2.5.9-1.8.6-3.7 1.2-5.5 1.8-.6.2-1.3.4-1.9.6-1.9.6-3.8 1.1-5.7 1.5-.7.2-1.4.3-2.2.5-1.8.4-3.7.8-5.5 1.2-.4.1-.7.1-1.1.2-.6.1-1.3.2-1.9.3-.9.1-1.7.3-2.6.4-.4.1-.8.1-1.2.2-.5.1-1.1.2-1.7.2-1.6.2-3.3.4-4.9.6-.5.1-1.1.1-1.6.2h-.1c-.7.1-1.4.1-2.1.2-.7.1-1.4.1-2.1.1-.4 0-.9.1-1.3.1-.8 0-1.5.1-2.2.1-1 0-1.9.1-2.9.1h-5c-42.2-.6-80.1-18.5-107.2-46.9 0 0 0-.1-.1-.1-3-2.7-.4-17.1 11.7-26.2 15.2-11.5 51.6-18.7 51.6-18.7s14.1-2.3 66.4 8.6c30.6 6.4 53.9 15.7 66.9 40.9 2.7 5.2 5.4 13.2-4.1 17.4Z"></path><path fill="#000" d="M173.6 219c19.2 3.9 39.7 8.1 55.5 20.8 5.3 4.3 8.8 10.6 11.7 16.7 1.4 3 2.8 6.1 3.9 9.4.6 2.2 1.5 4.7 1 7.3-.1.7-.7 1.6-1.2 2.1-2.3 2.3-4.8 3.7-7.3 5.5-14.7 10.2-31.6 17.4-49.1 21.2-39 8.5-81.2 1.9-115.5-18.6-11.4-6.9-21.9-15.3-30.9-25.2-1-1.2-1-3.2-1-4.5.1-3 .9-5.9 1.9-8.6 2.4-6.2 5.5-12.4 10.8-16.7 3.8-2.6 7.9-4.8 12.1-6.6 13.2-5.6 27.1-9.5 41.4-11.1 1.2-.1 1.4 1.6.2 1.8-13.7 2.8-27.3 7-40 12.7-4.6 2.3-9.5 4.3-13.2 7.9-3.5 3.8-6 8.5-8 13.3-1.3 2.9-2.2 7.5-1.8 9.8 6.3 7.5 13.7 14.1 21.7 19.8 43.8 30.6 110.3 32.6 156.9 7.1 4.2-2.3 8.3-4.9 12.2-7.6 1.9-1.3 3.9-2.4 5.4-3.9.1-.1 0 0 0 .1s-.1.2-.1.2c.1-1.2-.3-2.8-.8-4.4-1.8-5.8-4.7-11.9-7.8-17.2-4.9-7.9-13.2-12.9-21.6-16.9-5.8-2.7-11.9-4.8-18.1-6.8-6.2-2-12.5-3.7-18.8-5.2-1.6-.4-1.1-2.7.5-2.4Z"></path></svg><svg xmlns="http://www.w3.org/2000/svg" width="306" height="352" fill="none" style="z-index: 3; position: absolute; pointer-events: none;"><path fill="#fff" d="M81.5 218.1s9.7-6 25.5-6.6c15.8-.6 68.8 5 89.9 14.6 0 0 24.8 17.2.8 35.6-24 18.4-76 6.9-87.8-7.3-11.8-14.1-28.4-36.3-28.4-36.3Z"></path><path fill="#000" d="M78.3 217.5c.1-.8 1-1.9 1.7-2.2h.4c5.1-.1 9.6-2.9 14.5-3.7 14.7-3.2 29.9-.9 44.6.5 9.8 1.1 19.6 2.5 29.3 4.4 9.8 2 19.5 4.1 28.7 8 6.6 4.8 12.4 11.9 12.4 20.5-.1 6.5-3.9 11.9-8.5 16-7.3 6.8-17.3 10.2-27 11.5-19.6 2.6-45.7-1.3-62.2-12.5-1.7-1.2-3.4-2.7-4.7-4.3-5-5.9-9.8-11.8-14.5-17.8-2.3-2.9-8.4-10.6-10.6-13.5-.5-.7-2.2-2.7-2.6-3.4l-.4-.6c-.8-.6-1.2-1.8-1.1-2.9Zm6.4 1.2c.3-.7 0-1.8-.4-2.3.1.1.5.7.6.9 4.1 5.6 8.5 11.6 12.8 17.2 4.6 6 9.3 12.1 14 17.9 4.5 5.3 11.7 8.4 18.2 10.9 19.5 6.7 46.5 9.5 64.7-1.8 5.7-3.8 11.5-9.4 11.8-16.5.2-7-5.1-13.4-10.5-17.5-7.4-3.2-18.6-6-27.7-7.8-19.2-3.6-38.8-6.2-58.3-6.7-4.8 0-9.6.4-14.3 1.5-3.5.9-7.1 1.6-10.1 3.5-.9.7-1.9 1.6-2.3 2.7.7-.2 1.4-1.2 1.5-2Z"></path><path fill="#fff" d="M200.801 237.9c-.3 10.1-6.3 21.499-23 27.399-24.8 8.8 64.9 2.301 64.9 2.301s-5.5-18.2-15.2-26.3c-12.7-10.6-30.6-16.8-30.6-16.8s4.1 5.7 3.9 13.4Z"></path><path fill="#000" d="M203.201 238c-.9 14.6-12.6 24.3-25.6 28.7-.9.4-2.1.8-2.8 1.4-.2.1-.1.3 0-.2 0-.2-.1-.5-.2-.5 1.2.5 3.2.7 4.7.8 21.1 1 42.3-1.2 63.3-3.2l-2.3 3.3c.1-1.3-.1-2.7-.3-4.1-1.2-6.7-4.7-12.8-8.8-18.1-5.2-6.2-12.7-10.1-19.8-13.6-4.8-2.3-10-4.2-15.1-5.6l2.9-3.9c2.7 4.5 4.1 9.7 4 15Zm-4.8-.2c0-4.2-1.2-8.4-3.5-11.9-1.5-2 .7-4.8 2.9-3.9 5.4 1.9 10.4 4.2 15.4 6.8 6.2 3.3 12.4 7 17.6 11.9 7.1 7.3 11.2 16.6 14.4 26.1.5 1.5-.7 3.2-2.3 3.2l-28.3.8c-11.8.2-23.7.7-35.5-.2-2.1-.3-4.5-.2-6.3-1.7-1.9-2.5 2.2-4 4-4.6 11.9-3.6 21.9-13.3 21.6-26.5Z"></path><path fill="#fff" d="M252.4 348.699H23.2c.1-7.1.7-22.9 3-39.9 1.5-10.9 3.8-22.199 7.2-32.099 4.4-12.7 11-36.101 16.4-42.601l.2-.1c2.6-4.1 5.6-7.2 8.1-8.6 9.4-5.5 15-7.2 19.2-8.8 1.5-.5 3.8-1.2 4.3-.4 14.7 22.9 46 39.5 74 45.4 39.3 8.3 86.2 3.2 87.2 6 4.3 11.8 7.1 37.2 4.8 48.4-3 14.2 4.1 26.7 4.8 32.7Z"></path><path fill="#000" d="M254.301 350.5c-68.2.2-163.9 1.1-231.1.8-1.4 0-2.6-1.1-2.6-2.6.4-20 2-40.1 6.5-59.7 2.3-9.8 5.9-19 8.9-28.6 2.8-8.3 5.4-16.9 9.6-24.7.8-1.3 1.5-2.5 2.5-3.6l-.4.4c2.3-3.4 5-6.9 8.6-9.3 6.1-3.7 12.7-6.7 19.4-8.9 2-.6 3.9-1.5 6.2-.9.6.2 1.4.7 1.7 1.4l.3.5c1.4 2.2 3 4.3 4.6 6.3 17.8 20.8 43.9 33.6 70.5 39.1 12 2.2 24.4 3.5 36.6 3.9 10.5.3 21.8-.8 32.3-1.4 3.6-.2 8.2-.4 11.9-.2 2.5.1 5.4.5 6.5 3.4 3 8.8 4.4 18.1 5.2 27.2.5 6.3.8 12.6 0 19.2-.3 3-1.2 5.9-1.3 9-.6 8.2 2.3 16.1 4.2 24 .5 1.5.8 3.3-.1 4.7Zm-3.8-3.5c-.5.3-.8 1.1-.7 1.5l-.1-.4c-.4-1.8-1.6-5.7-2.1-7.5-2.7-8.3-4-17.5-1.9-26.1 1-6.6.8-13.5.3-20.3-.7-8.7-1.9-17.5-4.5-25.8v-.1s-.1-.2 0 .1c.2.3.3.3.3.4-.6-.2-1.3-.3-2.2-.3-32.9-.8-67.3.7-98.9-10-22.5-7.9-44.7-20.4-58.6-40.3l-.7-1-.3-.5-.1-.1c-.2-.1-.5-.1-.9 0-.3 0-.7.1-1.1.2-2.2.6-4.4 1.5-6.5 2.3-5 1.9-9.8 4.4-14.3 7.2-3.1 2.1-5.4 5.1-7.5 8.3-3 3.8-4.6 8.6-6.4 13.1-1.7 4.6-3.2 9.3-4.7 14-2.5 8.3-6.7 20-8.4 28.4-4.2 19.2-5.4 39.1-5.5 58.7l-2.6-2.6c65.9 0 160.7.3 227.4.8Z"></path><path fill="#000" d="M235.1 295.8c-2.3-1.5-4.6-2.9-6.9-4.4l6.6-4.8 6.9 4.4-6.6 4.8ZM162.601 291c-2-1.9-3.9-3.9-5.8-5.9 2.5-1.1 5-2.1 7.4-3.2 1.9 1.9 3.8 3.8 5.8 5.7-2.4 1.1-4.9 2.2-7.4 3.4ZM198.8 295.3c-2.2-1.7-4.3-3.3-6.4-5.1 2.4-1.3 4.7-2.8 7-4.2 2.1 1.7 4.3 3.4 6.4 5-2.3 1.5-4.7 2.9-7 4.3ZM127.2 281.6c-1.6-2.3-3.2-4.5-4.7-6.7 2.6-.6 5.3-1.3 7.9-2 1.5 2.2 3.2 4.3 4.8 6.5-2.6.7-5.3 1.6-8 2.2ZM66.1 240.8c-.2-2.8-.3-5.7 0-8.4 2.4 1.2 4.9 2.1 7.4 2.8 0 2.6.2 5.3.6 8-2.7-.6-5.3-1.4-8-2.4ZM94 265.6c-.6-1.2-1.1-2.6-1.6-3.8-.5-1.3-1-2.5-1.5-3.8H95c1.3 0 2.7 0 4-.1 1 2.4 2.1 5 3.3 7.4-2.8.2-5.5.3-8.3.3Z"></path><path fill="#000" d="M252.401 348.7h-163.5c-33.7-12.7-57.4-28.6-62.6-39.9-.9-2-1.3-3.8-1-5.5 4.9-34.4 23-67.5 24.6-69.3h.1s37.7 83.6 197.5 82.1c2.7 14.2 4.2 26.6 4.9 32.6Z"></path><path fill="#000" d="M81.501 257.5a7 7 0 1 0 0-14 7 7 0 0 0 0 14ZM112.4 278.1a7 7 0 1 0 0-14 7 7 0 0 0 0 14ZM146.001 289.899a7 7 0 1 0 0-14 7 7 0 0 0 0 14ZM181.601 295.7a7 7 0 1 0 0-14 7 7 0 0 0 0 14ZM218.001 297.8a7 7 0 1 0 0-14 7 7 0 0 0 0 14Z"></path></svg><svg xmlns="http://www.w3.org/2000/svg" width="306" height="306" fill="none" style="z-index: 4; position: absolute; pointer-events: none;"><path fill="#fff" d="M182.999 245.6c-2.1 10.3-15.7 16.5-38.6 7.2-23.8-9.6-34.1-32.5-36.7-39.3 14.1-26.4 4.3-44.7 4.3-44.7 32.5-2.8 60.9 35.2 60.9 35.2l4.4 18.8c.4 1.6 1.2 3 2.4 4 2.1 3.7 4.6 12.2 3.3 18.8Z"></path><path fill="#000" d="M107.2 213.8c1.9-2.9 3.1-6.3 3.9-9.6 1.5-6.9 2-13.9 2.1-20.9v-2.6c-.3-2.6-1.2-5.3-2.2-7.7-1.3-3.2 3.4-5.2 4.9-2 .2.4.2 1.1.2 1.5.3 13.6.9 31.1-7.7 42.4-.6.6-1.8-.3-1.2-1.1ZM173.999 203.8c1.5.9 2 2.1 2.2 3.3.6 2.4.4 5 1 7.5.5 2.4 2 4.7 2.4 7.2.5 2.6 2 8.1 2.6 10.8.2.6-.2 1.3-.9 1.4-.4.1-.7 0-1-.2-1.3-1.1-1.9-2.2-2.7-3.6-1.3-2.4-2.2-4.6-3-7.3-.7-2.4-.4-5-1-7.5-.5-2.4-1.9-4.7-2.4-7.2-.3-1.2-.4-2.5.5-4 .6-.6 1.6-.8 2.3-.4Z"></path><path fill="#000" d="M181.2 230.2c-19.1-1-34.7-7-49.9-34.1 12.8 11.3 27.9 15.6 43.8 17.6l2.1 9.2c.4 1.6 2.8 6.3 4 7.3Z"></path><path fill="#000" d="M180.4 226.5c3.4 6.4 5.4 14.4 3.3 21.5-1.6 5-6.2 8.7-11.2 10.1-11.6 3.1-25-1.8-35.3-7.3-12.7-7.1-22.1-19-28.1-32-.4-1 1-1.8 1.6-.8 2.1 4.2 4.5 8.3 7.2 12 2.7 3.8 5.8 7.3 9.3 10.4 10.2 9.2 24 14.9 37.8 14.9 14.2-.4 19.6-7.9 16.3-21.7-.5-2.2-1.3-4.5-2.4-6.4-.6-.8.9-1.7 1.5-.7Z"></path><path fill="#fff" d="M219.1 106.4c1.8 8.4.4 14-.4 37.2-.8 22.8-7.4 55-15.5 63.1-6.2 6.1-26.1 10.9-43.8 6.4-9-2.3-16.6-7.5-22.8-11.2-7.8-4.7-14.6-19.2-20.2-28.5-4.4-7.3-4 1.5-9.7-4.8-7.9-8.6-17.4-25.9-12.7-56.5 7.6-49.6 46.9-55.4 76-49.9 29.3 5.5 44.3 22.1 49.1 44.2Z"></path><path fill="#000" d="M111.7 177.4c-2.3-3.8-5.3-7.2-8-10.8-4-5.5-7-11.8-9-18.3-8.7-27.8-3.4-64.2 22.9-80.6 23.9-15.2 70.3-9.7 89.7 11.1 7.3 7.5 12 17.3 14 27.5.1.6.4 1.7.5 2.3.1.5.4 1.1.3 1.7-.2 2.2-.6 4.4-.8 6.6-1.5 13.3-1.1 26.9-2.8 40.2-1.5 14-3.5 28-7.7 41.5-1.3 4.1-3.8 7.8-7.1 10.5-7.4 6.2-17.1 8.3-26.4 8.7-18.6.9-37.5-5.7-48.3-21.4-.4-.6.4-1.3.9-.7 9 9.7 21.2 15.9 34.2 17.3 14.4 1.7 36.1.4 42.4-15 7.3-21.8 11.1-44.9 11.5-67.8 0-5.6-.3-11.2-.3-16.9 0-.7.1-2.3.1-3 0-.1 0 0 0 0 0 .1 0 .1 0 0-.8-2-1.1-4.2-1.7-6.2-2.2-8.3-6.2-16.2-11.9-22.5-18.9-21.2-61-26.5-84.6-10.6-18.7 12.4-23.7 36.2-25 57.2-1.1 15.7 3.5 31.1 15.4 41.9l4.7 4.9c2 2.2-1.4 4.8-3 2.4Z"></path><path fill="#fff" d="M123.5 145.6s-3.1-15-17.7-13.2c-12.6 1.6-17 31.8 11.6 40.2"></path><path fill="#000" d="M116.1 159.5c-2.3-1.3-3.9-3.5-4-6.2.1-2 .4-4.3-.1-6.3-.3-1.9-2.3-2.4-3.8-2.3-1.6.3-2.6 2.3-2.9 3.9 0 .1-.1.4-.1.5-.1.5-.9.5-1.1 0-1.3-3.9 1.6-8.2 5.8-7.7 5.9.4 6.7 6.6 5.6 11.3-.6 2 .2 3.8 1.3 5.5l.2.3c.5.6-.3 1.4-.9 1ZM196.101 135c1.5 7.1 4.3 13.7 7.8 19.9 3.1 7.6-4.9 14.8-12 14.5-.8 0-.9-1.1-.2-1.3 4.5-1.4 8.6-4.4 9.3-9 .3-1.4-.1-2.6-.8-3.8-3.3-6.2-5.3-13.3-4.8-20.3 0-.5.7-.5.7 0Z"></path><path fill="#000" d="M123 145.7c-2.3-5.9-7.3-11.5-14-11.4-.6-.1-1.6.1-2.2.1-1.7.1-3.1.7-4.4 1.9-6.4 6.4-5.3 17.7-.1 24.8 1.8 2.5 4.1 4.7 6.7 6.5 2.6 1.8 5.5 3.2 8.6 4.4.7.2.4 1.3-.3 1.2-6.7-1.4-13.1-4.7-17.5-10.2-6.8-8.2-8.2-21.9-.1-29.9 1.8-1.6 4.3-2.8 6.8-2.8.8 0 2-.2 2.8 0 4.2.2 8.2 2.3 10.8 5.6 2.3 2.8 3.6 6.2 4 9.6 0 .6-.9.8-1.1.2Z"></path></svg><svg xmlns="http://www.w3.org/2000/svg" width="306" height="306" fill="none" style="z-index: 5; position: absolute; pointer-events: none;"><path fill="#000" d="M238.7 94.4c0-12.6-8.5-23.1-20-26.4.6-2.5.7-5.1.1-7.8-2-8.7-9.8-14.8-18.7-14.2-3.5.2-6.8 1.5-9.5 3.5-4-11-9.9-14.8-21.8-15.5-6.2-.3-17.5 1.8-20.9 13.5-3.6-3-8.7-4.5-15.7-4.5-12.2 0-22.2 9.6-22.8 21.7-1.9-.6-4-.9-6.1-.8-8.1.5-14.7 7.1-15.3 15.2-.2 2.7.3 5.3 1.3 7.7C77.9 88 69 97.7 69 109.4c0 8.8 5 16.5 12.4 20.3-2.7 1.1-6.6 6.4-7.3 10.9-1.2 7.7 2.2 14.4 7 17-.5 1.6-.7 3.5-.1 5.4.9 3.3 3.6 5.9 6.9 6.6 2 .4 3.9.2 5.6-.5 1.6 3.4 3.6 5.5 5.2 6.8 6.2 5.1 18.9 4.6 15.5-4.3v-.2c-25-9.6-20.5-37.5-8.3-39.1 12.8-1.6 16.8 9.8 17.5 12.6 13.7-8.8-5.8-40.5 14.3-49.9 17.9-8.3 36.7 4.3 59.7 7.4 8.5 1.2 16.5-7.2 20.1-2.5.7 2.1 1.3 4.2 1.8 6.4.9 3.9.2 7.6-.7 12.9-1.2 6.7 6.9 2.1 7.7 1.1 2-2.5 3.4-5.3 2.4-8.6 5.6-4.9 10-9.1 10-17.3Z"></path></svg><svg xmlns="http://www.w3.org/2000/svg" width="306" height="306" fill="none" style="z-index: 6; position: absolute; pointer-events: none;"><path fill="#000" d="M173.5 124.4c2.2.3 3.9-2 3.1-4.2-.4-1.2-1.1-2.3-2.2-3-3.4-2.1-16.1-2.3-22.8 2.5-6 4.4 11.9 3.3 21.9 4.7ZM201.2 125.5c-1.8 0-2.9-2.3-2-4.2.5-1 1.2-1.9 2.2-2.4 3.1-1.5 11.4-.6 15.1 4.5 3.3 4.5-7 2-15.3 2.1ZM170.2 137.6c-3.5 3.1-8.9 3.1-13.1 1.5-.7-.3-4.7-2.1-3.9-3.1.1-.1.3-.2.4-.2 2.8.1 5.4.4 8.1.6 2.7.2 5.1.1 7.9 0 .7 0 1.1.8.6 1.2ZM209.7 139.3c-3.2 3.7-9.7 3.2-12.7-.4-.3-.3 0-.9.4-.8 1.1.1 2.1.3 3.1.4 3 .5 5.5.4 8.7.3.5-.2.7.3.5.5Z"></path></svg><svg xmlns="http://www.w3.org/2000/svg" width="306" height="306" fill="none" style="z-index: 7; position: absolute; pointer-events: none;"><path fill="#000" d="M186.2 179c.1 1.6-1.1 4.4-3.3 6.4-11.3-6.9-16.4-3.3-16.4-3.3-4-6.1-3.1-14.4 6.6-8.1 6.7 4.4 10.9 5.1 13.1 5Z"></path><path fill="#fff" d="M182.799 185.5c-2.4 2.1-6 3.4-10.9 1.4-2.3-.9-4.1-2.7-5.5-4.7.1 0 5.1-3.6 16.4 3.3Z"></path><path stroke="#000" stroke-linecap="round" stroke-linejoin="round" stroke-miterlimit="10" stroke-width="3" d="M188.1 178.7s-4.2 2.3-15-4.6c-12.9-8.3-10.3 9.1-1.2 12.8 9.5 3.9 14.4-4.6 14.3-7.8"></path><path stroke="#000" stroke-linecap="round" stroke-linejoin="round" stroke-miterlimit="10" stroke-width="3" d="M166.5 182.2s5.1-3.6 16.4 3.3"></path></svg><svg xmlns="http://www.w3.org/2000/svg" width="306" height="306" fill="none" style="z-index: 8; position: absolute; pointer-events: none;"><path fill="#000" d="M188 165.5c-3.8-1-12.1-1.8-13.9 8.1 0 0 5.5 3.6 13.2 3.1 1.2-.1 2.3-4.2 2.3-4.2l.3 4.2 6.1.5.7-4.1.5 4.1s4.8.5 5.7-1.1c1.2-2.2 2.6-13.7-8.5-10.4-2.1.7-4.3.3-6.4-.2Z"></path></svg><svg xmlns="http://www.w3.org/2000/svg" width="306" height="306" fill="none" style="z-index: 9; position: absolute; pointer-events: none;"><path fill="#fff" d="M205.101 154.6c-2.7-3.3-6.2-5.6-10.4-5.7-4.4-.1-11.3.9-18.2 6.4-9 7.2-27 6.1-34.1 5.4-2-.2-3.9.8-4.8 2.6-2 4-4.7 12.3-3.4 25.7 1.7 18.3 16.6 34.9 37.6 33.5 27.6-1.7 43.7-23.9 44.7-53.6-.2-8.2-5.1-6.5-11.4-14.3Z"></path><path fill="#000" d="M204.301 155.2c-2.3-2.9-5.5-5.2-9.3-5.4-6.3-.3-12.6 2-17.6 6-1.3 1-2.8 2-4.3 2.8-8.2 3.9-17.7 4.1-26.6 3.7-1.8 0-3.7-.5-5.6-.3-1.2.2-2.2 1.2-2.7 2.4-4.3 10-4.4 24.3-.5 34.5 3.2 8.2 9.4 15.2 17.3 19.1 6.2 3.1 13.4 3.9 20.3 3 1.3-.1 4.4-.8 5.7-1 .7-.2 3.9-1.2 4.6-1.4.6-.2 2.1-.9 2.6-1.1 14.4-6.3 23.2-21.2 25.6-36.3.5-2.5.8-5.1 1-7.7.1-2.6.6-5.2-.1-7.4-.6-2.4-2.7-3.5-4.6-5.1-2.1-1.8-4.1-3.7-5.8-5.8Zm1.5-1.2c2.5 3.2 5.9 4.8 9 7.4 3.5 2.9 2.8 8.2 2.5 12.1 0 1.1-.4 2.8-.5 4-1.7 11.8-6.5 23.4-14.7 32.2-11.4 12.1-30.4 17.8-46.3 11.7-15.1-6-23.6-21.6-23.4-37.4-.1-6.7.7-13.5 3.3-19.8.2-.5.4-.9.6-1.4 1-2.1 3.2-3.5 5.5-3.4 6.8.7 13.7 1 20.4 0 5.1-.7 10.1-2.1 14-5.3 6.1-4.7 15.5-8 23-5.2 2.7 1.2 4.8 3 6.6 5.1Z"></path><path fill="#000" d="M168.4 160.2c10.4 3.8 30.4 11.5 41 8.9 1.8-.5 3.2-1.6 4-3.4.2-.6 1.1-.3 1 .2-2.6 12.2-27.4 2.9-35 .1-3.9-1.5-7.7-3.1-11.4-5-.6-.1-.2-1 .4-.8ZM151.4 173.8c17.3 7.9 42.4 18.8 61 11.1.5-.2 1 .4.6.8-11.4 10.9-35.2 2.3-47.7-3.3-5-2.3-9.8-4.8-14.4-7.7-.5-.3-.1-1.2.5-.9ZM150.1 191.1c7 5.2 15.2 8.9 23.6 11 5 1.2 10.2 2 15.4 1.9 4.7.1 9.3-.7 14-.5.3 0 .5.2.5.5 0 .2-.1.4-.3.4-1.1.5-2.3.9-3.4 1.2-3.5 1.1-7.2 1.3-10.8 1.2-10.9 0-21.7-3.2-31-8.8-3.1-1.9-6-3.9-8.7-6.4-.4-.2.2-.9.7-.5Z"></path><path fill="#000" d="M155.9 162.7c-3.4 6.1-4.6 13.3-5.4 20.2-1.4 11.6 1.1 23.6 6.3 34.1.3.5-.5 1.1-.9.5-7.3-12.6-9.6-27.8-6.2-42 .8-3.5 1.9-7 3.5-10.3.6-1.1 1.1-2.1 1.9-3.1.2-.2.5-.3.7-.1.2.2.3.5.1.7ZM140.7 164.5c-6-4.7-11-10.2-15.4-16.4-1.5-2-2.7-4.2-4-6.3-.2-.3-.1-.8.3-1 .3-.2.8-.1 1 .3 3.9 6.2 8.7 11.7 14.2 16.5 1.8 1.6 3.8 3.2 5.7 4.5 1.6 1.1-.1 3.6-1.8 2.4ZM116.8 172.3c4 12.1 12.4 22.2 22.6 29.7 1.6 1.2-.2 3.6-1.8 2.4-10.2-8.1-18.6-19-22.2-31.7-.3-.9 1.1-1.4 1.4-.4Z"></path></svg></svg>